<?xml version="1.0" standalone="no"?>
<!DOCTYPE svg PUBLIC "-//W3C//DTD SVG 20010904//EN"
 "http://www.w3.org/TR/2001/REC-SVG-20010904/DTD/svg10.dtd">
<svg version="1.0" xmlns="http://www.w3.org/2000/svg"
 width="980.000000pt" height="980.000000pt" viewBox="0 0 980.000000 980.000000"
 preserveAspectRatio="xMidYMid meet">

<g transform="translate(0.000000,980.000000) scale(0.100000,-0.100000)"
fill="#000000" stroke="none">
<path d="M4485 9435 c-1178 -107 -2278 -681 -3056 -1595 -562 -659 -932 -1490
-1044 -2340 -40 -305 -51 -722 -26 -990 80 -859 382 -1647 892 -2331 253 -340
622 -705 964 -954 635 -463 1356 -751 2116 -845 755 -93 1467 -6 2200 270 90
34 175 68 189 76 14 7 90 45 170 83 125 60 185 93 378 206 19 11 84 53 145 94
567 375 1048 881 1407 1481 303 505 513 1109 594 1705 52 383 47 915 -14 1300
-53 345 -179 790 -298 1056 -11 24 -36 82 -57 129 -160 360 -404 742 -680
1065 -799 933 -1886 1490 -3110 1595 -161 13 -597 11 -770 -5z m1319 -2156
c53 -15 93 -46 122 -95 24 -40 24 -44 24 -303 l0 -261 451 0 c248 1 454 -2
457 -5 3 -3 0 -5 -6 -5 -9 0 -12 -218 -12 -889 0 -801 -2 -889 -16 -895 -20
-8 -3828 -8 -3848 0 -14 6 -16 94 -16 900 l0 894 445 0 445 0 0 258 c0 250 1
260 23 302 12 24 34 52 48 62 64 48 50 47 974 48 597 0 882 -4 909 -11z m1862
-694 c30 -19 60 -49 79 -79 l30 -49 3 -1874 2 -1874 -21 -50 c-27 -62 -87
-115 -153 -134 -75 -23 -5337 -23 -5412 0 -66 19 -121 67 -150 129 l-24 51 0
1863 c0 1650 2 1867 15 1899 26 61 65 104 119 129 49 23 59 24 304 24 l252 0
0 -920 c0 -774 2 -926 14 -955 22 -52 91 -120 149 -146 l52 -24 1975 0 1975 0
55 26 c60 29 112 75 138 123 16 28 17 112 20 956 1 509 4 930 6 935 2 6 94 8
263 5 l260 -5 49 -30z"/>
<path d="M4110 6820 l0 -200 790 0 790 0 0 200 0 200 -790 0 -790 0 0 -200z"/>
</g>
</svg>
